<svg width="280" height="280" viewBox="0 0 280 280" fill="none" xmlns="http://www.w3.org/2000/svg">
<path d="M49.6425 74.1457C52.664 73.1056 54.7921 71.3291 54.3957 70.1777C53.9994 69.0263 51.2287 68.9361 48.2072 69.9762C45.1857 71.0162 43.0576 72.7928 43.454 73.9441C43.8503 75.0955 46.621 75.1858 49.6425 74.1457Z" fill="#BC5D5B"/>
<path d="M225.194 151.977C225.194 186.526 204.566 211.814 176.262 225.133C160.176 232.706 141.612 236.413 122.945 235.757C122.573 235.746 122.198 235.729 121.826 235.711C121.274 235.686 120.72 235.658 120.169 235.627C119.909 235.613 119.649 235.599 119.389 235.578C119.284 235.574 119.182 235.567 119.077 235.56C118.887 235.546 118.698 235.536 118.508 235.521C118.427 235.518 118.346 235.511 118.262 235.504C101.418 234.258 86.8907 229.641 74.6383 222.732C41.0129 203.785 24.5372 167.618 24.3476 136.808C24.1159 99.4434 47.9114 74.8721 77.6014 74.8721C108.281 74.8721 114.242 90.9019 155.391 90.9019C185.12 90.9019 225.194 97.2984 225.194 151.977Z" fill="#E2E1F0"/>
<path d="M40.6723 169.095C39.8157 168.214 49.8528 153.996 55.7051 151.486C60.1531 149.579 48.9189 164.749 48.9189 164.749C48.9189 164.749 43.3861 171.886 40.6723 169.095Z" fill="#9E5F44"/>
<path d="M60.7606 155.724C60.7606 155.724 60.5745 155.878 60.248 156.152C57.9345 158.083 48.5645 165.894 48.3889 165.834C48.3152 165.81 45.5488 162.05 42.0942 157.328C42.0486 157.268 42.0065 157.209 41.9608 157.149C40.216 154.765 38.3027 152.143 36.4771 149.636C35.9295 148.885 35.3923 148.148 34.8692 147.428C34.8657 147.424 34.8622 147.417 34.8587 147.414C31.2673 142.485 28.3674 138.497 28.3674 138.497L27.1282 138.469C25.9766 138.444 24.9024 137.893 24.2143 136.973L23.5262 136.053L21.5462 133.417C21.346 133.153 21.174 132.869 21.0336 132.574C21.0301 132.571 21.0301 132.571 21.0301 132.567C20.8194 132.125 20.679 131.654 20.6088 131.17C20.5912 131.068 20.5807 130.963 20.5737 130.861C20.5737 130.857 20.5737 130.857 20.5737 130.857C20.5491 130.538 20.5526 130.211 20.5912 129.888L20.83 127.863C20.9002 127.262 21.2091 126.715 21.6936 126.346L21.4443 125.876C21.1214 125.268 21.0547 124.556 21.2618 123.899L22.0868 121.277C22.2167 120.859 22.5994 120.596 23.0101 120.596C23.133 120.596 23.2594 120.62 23.3787 120.669L23.312 119.823C23.2137 118.521 23.6385 117.232 24.4951 116.242L27.237 113.086C27.237 113.086 21.0687 96.2945 24.3091 95.0588C27.1036 93.995 37.7445 113.883 37.7445 113.883C37.7445 113.883 41.8696 108.961 44.5307 109.537C49.1051 110.53 51.0535 119.139 51.7943 124.054C52.0997 126.076 52.1138 128.13 51.8505 130.155C51.696 131.356 51.5205 132.764 51.3976 133.785C51.2852 134.691 51.4678 135.607 51.9172 136.401C53.5145 139.213 57.5167 146.108 60.0971 149.138L60.7606 155.724Z" fill="#EEB49B"/>
<path d="M60.248 156.152C57.9345 158.083 48.5644 165.894 48.3889 165.834C48.3152 165.81 45.5488 162.05 42.0942 157.328C44.0286 159.519 54.8029 157.907 60.248 156.152Z" fill="#D89B87"/>
<path d="M177.028 225.298C175.153 226.987 173.11 228.279 170.884 229.094C170.667 229.174 170.445 229.252 170.224 229.329C160.145 232.931 147.868 235.283 134.991 235.869C133.358 235.943 131.715 235.989 130.069 236.003C129.002 236.017 127.927 236.01 126.853 235.992C126.555 235.989 126.253 235.985 125.954 235.978C125.207 235.964 124.459 235.946 123.711 235.922C123.339 235.911 122.963 235.894 122.591 235.876C122.04 235.852 121.485 235.824 120.934 235.792C120.674 235.778 120.414 235.764 120.155 235.743C120.049 235.739 119.948 235.732 119.842 235.725C119.653 235.711 119.463 235.701 119.273 235.687C119.193 235.683 119.112 235.676 119.028 235.669C102.183 234.423 87.6561 229.806 75.4038 222.897C75.4284 222.876 75.453 222.855 75.481 222.834C75.5372 222.792 75.5934 222.746 75.6531 222.694C75.6917 222.662 75.7338 222.63 75.7724 222.595C84.1911 215.574 102.85 185.491 111.262 163.191C113.021 158.532 114.33 154.21 115.008 150.514C115.261 149.127 115.496 147.758 115.717 146.403C118.901 126.771 118.989 110.853 129.623 109.589C129.802 109.568 129.988 109.551 130.174 109.537C132.137 109.4 134.215 109.326 136.378 109.326C136.806 109.326 137.234 109.33 137.669 109.337C138.115 109.344 138.561 109.351 139.014 109.365C139.435 109.379 139.86 109.393 140.285 109.41C140.594 109.424 140.906 109.439 141.219 109.456C147.629 109.79 154.496 110.822 161.051 112.875C162.318 113.272 163.554 113.697 164.762 114.146C165.987 114.603 167.18 115.087 168.342 115.593C168.697 115.747 168.262 117.141 168.609 117.299C177.052 121.14 182.993 125.286 187.444 130.513C186.672 131.022 187.339 131.38 187.356 131.401C187.556 131.633 188.29 131.528 188.487 131.777C190.562 134.343 192.145 136.323 193.131 138.827C193.244 139.111 193.167 140.227 193.265 140.624C196.259 152.181 195.922 208.293 177.028 225.298Z" fill="#192440"/>
<path d="M139.386 110.558C140.948 110.025 142.012 113.054 141.117 114.982C140.218 116.909 137.325 122.796 136.693 121.101C136.061 119.405 139.386 110.558 139.386 110.558Z" fill="#9E5F44"/>
<path d="M162.866 114.683C162.202 117.211 156.216 122.663 149.184 124.991C142.153 127.322 132.337 123.063 135.728 121.003C137.315 120.037 138.484 118.341 139.218 116.003C139.6 114.792 139.867 113.405 140.015 111.861C140.13 110.685 140.176 109.421 140.151 108.066V108.027C140.137 107.279 140.102 106.503 140.05 105.703L141.338 104.46L147.169 98.8501C147.169 98.8501 163.533 112.156 162.866 114.683Z" fill="#EEB49B"/>
<path d="M148.654 104.039C148.296 107.778 142.63 113.985 139.218 116.003C139.6 114.792 139.867 113.406 140.014 111.861C140.13 110.685 140.176 109.421 140.151 108.066V108.027C140.137 107.279 140.102 106.503 140.05 105.703L141.338 104.46C142.553 104.004 144.161 104.018 144.94 103.906C146.537 103.674 148.798 102.526 148.654 104.039Z" fill="#D89B87"/>
<path d="M168.493 116.059C162.335 122.93 156.813 128.933 140.183 128.933C127.162 128.933 133.049 113.307 136.837 109.336C137.676 109.35 138.526 109.375 139.386 109.41C139.695 109.424 139.839 109.428 140.151 109.445C140.183 110.197 140.085 111.018 140.085 111.018C140.085 111.018 131.462 123.397 143.578 123.397C152.885 123.397 160.727 117.074 163.863 114.146C165.088 114.602 166.281 115.087 167.443 115.592C167.798 115.747 168.146 115.901 168.493 116.059Z" fill="#2C3C60"/>
<path d="M176.129 225.298C174.254 226.987 172.211 228.279 169.985 229.093C169.768 229.174 169.546 229.251 169.325 229.328C159.246 232.93 146.969 235.282 134.092 235.869C132.459 235.942 130.816 235.988 129.17 236.002C128.103 236.016 127.028 236.009 125.954 235.992C129.409 229.093 139.386 218.849 139.386 190.686C139.386 151.742 151.094 124.66 167.444 115.592C167.798 115.747 168.146 115.901 168.493 116.059C176.936 119.9 183.554 124.955 188.006 130.183C188.023 130.2 188.041 130.221 188.058 130.242C188.258 130.474 188.459 130.716 188.655 130.966C190.73 133.532 192.278 136.126 193.265 138.629C193.377 138.914 193.486 139.258 193.584 139.655C196.575 151.212 195.024 208.292 176.129 225.298Z" fill="#0E172D"/>
<path d="M108.436 185.406C108.436 185.406 108.432 185.41 108.432 185.413C105.009 191.269 101.751 195.98 99.0763 198.761C93.3925 204.662 89.2604 207.646 86.3605 209.114C83.6187 210.501 80.287 209.897 78.149 207.692L73.6027 203.009L48.4205 177.072L40.6724 169.092C50.2495 165.834 60.406 155.126 60.097 149.137L67.5081 155.744L84.5736 170.956C85.5355 170.012 86.6414 168.678 87.8456 167.01C91.6617 161.737 96.4433 153.15 100.54 143.152C100.814 142.481 97.521 139.342 97.8054 138.675C103.896 124.506 112.968 110.916 129.275 109.537C139.79 116.656 122.7 160.979 108.436 185.406Z" fill="#F37B34"/>
<path d="M71.5595 203.521C71.5068 203.532 71.4577 203.542 71.405 203.549C71.405 203.549 71.405 203.402 71.5595 203.521Z" fill="#F37B34"/>
<path d="M108.436 185.406C108.436 185.406 108.432 185.41 108.432 185.413C105.009 191.269 101.752 195.98 99.0764 198.761C93.3926 204.662 89.2605 207.646 86.3606 209.114C83.6188 210.501 80.2871 209.897 78.1491 207.692L73.6028 203.009C87.1014 208.208 110.546 164.363 111.027 151.984C111.329 144.191 112.329 168.235 108.436 185.406Z" fill="#CA6734"/>
<path d="M115.707 76.989C115.707 76.989 120.952 111.485 139.751 106.605C155.95 102.403 148.521 86.1238 148.521 86.1238L135.928 64.4839L115.707 76.989Z" fill="#EEB49B"/>
<path d="M114.109 59.2493C118.985 55.3454 127.032 31.3112 144.175 52.8634C152.246 41.6888 171.716 57.3079 168.3 80.8015C167.591 85.6778 167.963 90.3611 170.916 91.8005C175.838 94.1947 176.104 101.911 177.702 103.575C179.046 104.976 181.718 106.616 184.316 106.858C184.927 106.914 185.225 107.63 184.818 108.09C179.548 114.037 163.74 117.681 146.738 113.037C145.151 112.601 144.154 110.99 144.571 109.4C145.797 104.734 151.789 98.8043 148.433 89.0551C144.312 77.0801 136.283 66.7938 136.283 66.7938C136.283 66.7938 131.67 72.2038 124.929 74.7771C118.189 77.3434 114.109 59.2493 114.109 59.2493Z" fill="#192440"/>
<path d="M143.111 80.8892C149.697 66.9201 163.996 90.3365 147.833 91.0667L143.111 80.8892Z" fill="#EEB49B"/>
<path d="M199.784 181.864C199.496 201.408 190.035 218.466 184.762 226.485C182.799 229.465 179.271 231.013 175.753 230.417L169.325 229.328C169.125 229.398 168.925 229.469 168.725 229.539C161.16 232.186 152.393 234.131 143.083 235.163C140.134 235.493 137.129 235.728 134.092 235.869C135.96 233.857 137.476 231.407 138.716 228.595C139.295 227.278 139.814 225.881 140.281 224.417C140.404 224.034 140.524 223.648 140.636 223.255C141.615 219.916 142.339 216.24 142.89 212.315C147.419 180.073 140.341 131.138 167.444 115.592C169.536 116.502 171.52 117.488 173.391 118.531C179.527 121.954 184.456 126.012 188.006 130.183C188.023 130.2 188.041 130.221 188.058 130.242C188.259 130.474 188.459 130.716 188.655 130.966C190.73 133.532 192.278 136.126 193.265 138.629C193.377 138.914 193.486 139.258 193.584 139.655C197.453 148.94 200.065 162.86 199.784 181.864Z" fill="#F37B34"/>
<path d="M173.391 118.531C143.487 143.502 160.029 210.019 143.083 235.163C140.134 235.493 137.129 235.728 134.092 235.869C136.834 232.913 138.821 229.012 140.281 224.417C141.443 220.776 142.275 216.7 142.89 212.315C147.419 180.073 140.341 131.138 167.444 115.592C169.536 116.502 171.52 117.488 173.391 118.531Z" fill="#F4956C"/>
<path d="M168.725 229.539L138.716 228.595C139.295 227.278 139.814 225.881 140.281 224.417C140.404 224.034 140.524 223.648 140.636 223.255L168.725 229.539Z" fill="#CA6734"/>
<path d="M147.763 224.849C147.338 226.235 146.878 227.566 146.369 228.837L138.716 228.595C139.151 227.605 139.551 226.569 139.923 225.495C139.983 225.323 140.043 225.147 140.099 224.972C140.162 224.789 140.222 224.603 140.281 224.417C140.355 224.189 140.425 223.961 140.495 223.729C140.545 223.571 140.59 223.413 140.636 223.255L147.763 224.849Z" fill="#F37B34"/>
<path d="M135.57 223.933C130.62 222.96 135.394 207.675 137.059 206.011C138.723 204.347 150.164 215.588 149.897 216.322C149.63 217.055 135.57 223.933 135.57 223.933Z" fill="#9E5F44"/>
<path d="M110.774 234.928C112.08 235.1 113.393 235.247 114.706 235.377C113.393 235.251 112.08 235.1 110.774 234.928Z" fill="#F37B34"/>
<path d="M139.386 109.41C131.227 111.931 136.802 132.448 131.269 154.059C124.469 180.632 111.49 211.066 118.943 235.725C118.754 235.711 118.564 235.701 118.375 235.687C118.294 235.68 118.21 235.676 118.129 235.669C101.284 234.423 86.7572 229.806 74.5049 222.897C74.5295 222.876 74.554 222.855 74.5821 222.834C74.6383 222.788 74.698 222.743 74.7541 222.694C74.7928 222.662 74.8349 222.63 74.8735 222.595C84.9738 214.089 108.243 171.465 112.157 150.071C116.086 128.593 117.297 110.924 128.724 109.589C128.903 109.568 129.089 109.551 129.275 109.537C131.238 109.4 133.316 109.326 135.479 109.326C135.907 109.326 136.335 109.33 136.771 109.337C137.216 109.344 137.662 109.351 138.115 109.365C138.536 109.379 138.961 109.393 139.386 109.41Z" fill="#F37B34"/>
<path d="M139.386 109.41C131.227 111.931 136.802 132.448 131.269 154.059C124.469 180.632 111.49 211.066 118.943 235.725C118.754 235.711 118.564 235.701 118.375 235.687C118.294 235.68 118.21 235.676 118.129 235.669C116.012 235.515 113.934 235.304 111.894 235.044C104.876 210.508 117.679 180.386 124.416 154.059C129.949 132.448 124.374 111.931 132.533 109.41C132.354 109.403 132.175 109.396 132 109.393C133.13 109.347 134.292 109.326 135.479 109.326C135.907 109.326 136.335 109.33 136.771 109.337C137.216 109.344 137.662 109.351 138.115 109.365C138.537 109.379 138.961 109.393 139.386 109.41Z" fill="#F4956C"/>
<path d="M116.711 121.437C114.843 121.985 112.624 122.371 109.984 122.529C93.3539 123.53 88.2038 113.693 86.9469 110.386C86.7258 109.796 86.9259 109.136 87.4454 108.774C89.4149 107.405 94.3475 103.498 96.8155 97.2523C98.0934 94.0154 98.3602 85.3897 99.4555 77.4695C100.172 72.2597 101.246 67.3517 103.201 64.4835C107.133 59.6738 116.686 69.251 115.889 73.6253C115.798 74.1309 115.566 74.5662 115.173 74.9032C111.374 78.1436 109.321 78.6281 109.321 78.6281L109.447 78.8457L110.307 80.3237L125.951 107.23C125.951 107.23 126.126 107.848 126.218 108.838C126.512 111.945 126 118.713 116.711 121.437Z" fill="#192440"/>
<path d="M129.17 236.153C125.779 236.192 122.331 236.055 118.915 235.83C118.536 235.806 118.206 235.757 117.827 235.725L110.363 163.191L109.156 151.43L107.962 147.916L114.818 146.402L120.183 145.216L129.17 236.153Z" fill="white"/>
<path d="M132.993 98.4989C132.705 99.7417 132.33 101.048 131.863 102.294C130.62 105.633 128.742 108.561 126.217 108.838C125.793 108.891 125.347 108.863 124.883 108.747C118.052 107.054 111.416 86.8715 109.563 80.791C109.233 79.7062 109.054 79.0707 109.054 79.0707L109.447 78.846L116.258 74.9948L117.125 74.5033C118.638 74.0259 120.923 75.4372 123.304 77.5155C127.207 80.9173 131.375 86.1026 132.853 87.6754C133.987 88.8796 134.074 93.8402 132.993 98.4989Z" fill="#EEB49B"/>
<path d="M116.282 75.0828C114.994 76.4695 112.624 78.7901 110.307 80.3243C110.058 80.4893 109.808 80.6473 109.563 80.7912C109.026 81.1072 108.495 81.3705 107.99 81.5565C105.108 82.6203 105.95 77.1155 107.147 76.4555C108.344 75.792 115.218 71.1333 115.218 71.1333L115.889 73.6259L116.258 74.9951L116.282 75.0828Z" fill="#192440"/>
<path opacity="0.48" d="M126.218 108.838C126.512 111.945 126 118.713 116.711 121.437C114.172 109.066 106.375 89.0548 99.4556 77.4695C100.172 72.2597 101.246 67.3517 103.201 64.4835C107.133 59.6738 116.686 69.251 115.889 73.6253L116.258 74.9945L117.125 74.503C118.638 74.0255 120.923 75.4368 123.304 77.5152C126.867 84.2171 129.77 91.8809 131.378 99.4219C131.585 100.387 131.743 101.346 131.863 102.294C130.62 105.632 128.742 108.56 126.218 108.838Z" fill="#1B1B1C"/>
<path d="M132.533 99.7805C130.504 77.8738 118.013 50.4974 95.3971 54.977C80.7329 57.8804 73.2236 87.142 79.9641 112.261C86.7748 137.65 101.274 154.221 114.109 151.932C127.032 149.625 134.531 121.403 132.533 99.7805ZM111.848 141.554C102.06 143.299 92.6412 128.133 87.4454 108.775C82.3057 89.6205 88.9655 69.1848 97.7177 66.457C114.499 61.2296 120.228 84.6143 122.756 101.645C125.189 118.026 121.699 139.795 111.848 141.554Z" fill="white"/>
<path d="M151.431 201.752C149.992 208.791 143.378 215.791 143.378 215.791C143.378 215.791 138.427 212.783 132.793 209.577C132.786 209.574 132.782 209.574 132.779 209.57C127.485 206.562 121.594 203.381 118.631 202.352C114.014 200.748 108.562 196.054 106.164 193.846C105.399 193.14 105.086 192.069 105.346 191.062L105.624 189.995C105.746 189.521 105.989 189.092 106.326 188.745C106.326 188.745 106.326 188.745 106.329 188.745C106.463 188.597 106.621 188.467 106.793 188.352C105.999 187.871 105.487 187.035 105.42 186.112L105.311 184.648C105.269 184.086 105.395 183.528 105.666 183.043C105.732 182.921 105.806 182.805 105.89 182.696L106.094 182.429L105.933 181.917C105.732 181.278 105.729 180.589 105.918 179.947L106.578 177.711C106.712 177.261 106.93 176.854 107.221 176.503C107.316 176.387 107.421 176.278 107.53 176.177C107.755 175.966 108.011 175.787 108.288 175.646C108.137 174.249 108.257 168.927 110.855 167.958L111.981 170.623L120.797 176.721L120.993 176.858C121.074 176.914 121.162 176.952 121.25 176.97C121.71 177.079 122.198 176.717 122.159 176.194L121.843 164.072V164.068L121.769 161.231C124.564 160.972 126.172 165.013 127.032 173.263C127.73 179.961 133.797 185.789 136.325 187.987C138.852 190.181 149.377 193.095 149.377 193.095C151.701 195.601 152.06 198.68 151.431 201.752Z" fill="#EEB49B"/>
<path d="M151.431 201.752C149.992 208.791 143.378 215.791 143.378 215.791C143.378 215.791 138.428 212.782 132.793 209.577C137.238 211.87 150.353 202.127 150.824 199.161C150.968 198.234 151.238 199.487 151.431 201.752Z" fill="#D89B87"/>
<path d="M201.396 182.45C201.108 201.994 191.646 219.053 186.373 227.071C184.411 230.052 180.883 231.6 177.365 231.003L170.937 229.915L147.475 225.948L141.893 225.003L135.57 223.933C139.063 221.184 142.139 217.318 144.501 212.902C147.731 206.857 149.616 199.772 149.378 193.095L157.779 194.934L165.86 196.7C171.583 188.984 172.573 164.756 171.864 151.984C171.864 151.984 181.107 122.316 187.746 129.814C187.764 129.832 192.812 136.885 194.297 140.459C198.166 149.745 201.676 163.447 201.396 182.45Z" fill="#F37B34"/>
<path d="M165.86 196.7L149.377 193.094L164.382 194.295C170.326 188.53 171.863 151.984 171.863 151.984C172.573 164.756 171.583 188.983 165.86 196.7Z" fill="#CA6734"/>
<path d="M246.438 64.5049L269.815 94.0229C270.079 94.3529 270.057 94.8268 269.77 95.1357L267.344 97.7337C267.091 98.0075 266.691 98.0812 266.354 97.9232C265.469 97.509 263.629 96.9367 261.885 98.2287C260.175 99.496 260.442 101.195 260.744 102.08C260.87 102.445 260.716 102.849 260.393 103.059L256.215 105.752C255.846 105.987 255.362 105.91 255.088 105.57L231.11 75.8796C230.804 75.5039 230.875 74.9493 231.264 74.6579L234.487 72.253C234.761 72.0494 235.13 72.0319 235.428 72.2004C236.158 72.6146 237.678 73.1869 239.342 72.1056C240.999 71.0278 240.729 69.3216 240.438 68.4299C240.318 68.0648 240.445 67.6681 240.761 67.4504L245.286 64.3329C245.655 64.0766 246.157 64.1539 246.438 64.5049Z" fill="#9D78B4"/>
<path d="M246.954 70.3431L237.071 77.9402C236.773 78.1684 236.72 78.5967 236.952 78.8916L252.156 98.1934C252.381 98.4813 252.799 98.534 253.09 98.3163L263.106 90.7894C263.408 90.5612 263.464 90.1294 263.229 89.8345L247.891 70.4589C247.663 70.171 247.245 70.1184 246.954 70.3431Z" fill="#CDB8DD"/>
<path d="M251.683 82.9568L253.42 82.5917C253.743 82.525 254.007 82.855 253.863 83.1534L253.094 84.7543C253.038 84.8737 253.041 85.0106 253.108 85.1264L253.993 86.6676C254.158 86.9555 253.922 87.3066 253.592 87.2609L251.83 87.0257C251.7 87.0082 251.57 87.0573 251.483 87.1521L250.292 88.4686C250.071 88.7143 249.664 88.5985 249.604 88.272L249.285 86.5237C249.26 86.3938 249.176 86.285 249.057 86.2323L247.435 85.5056C247.133 85.3687 247.119 84.9474 247.407 84.7894L248.969 83.9433C249.085 83.8801 249.162 83.7643 249.176 83.6344L249.366 81.8685C249.401 81.5385 249.797 81.3946 250.036 81.6228L251.321 82.848C251.419 82.9463 251.556 82.9849 251.683 82.9568Z" fill="white"/>
<path d="M223.811 81.5181L265.227 98.5204C265.69 98.71 265.946 99.212 265.827 99.7L264.823 103.808C264.718 104.239 264.346 104.548 263.903 104.58C262.745 104.664 260.505 105.145 259.445 107.501C258.409 109.811 259.673 111.419 260.501 112.159C260.845 112.468 260.923 112.974 260.709 113.381L257.946 118.602C257.703 119.061 257.152 119.262 256.671 119.068L214.532 102.238C213.999 102.024 213.746 101.41 213.981 100.883L215.923 96.5158C216.088 96.1437 216.46 95.912 216.867 95.912C217.868 95.9155 219.777 95.6241 220.869 93.5317C221.958 91.4499 220.69 89.8385 219.865 89.0837C219.528 88.7747 219.43 88.2867 219.63 87.8795L222.509 82.0131C222.751 81.5287 223.316 81.3145 223.811 81.5181Z" fill="#9D78B4"/>
<path d="M227.743 87.272L221.919 100.9C221.743 101.311 221.936 101.785 222.351 101.954L249.348 113.118C249.748 113.283 250.212 113.1 250.387 112.7L256.394 99.0679C256.576 98.6571 256.383 98.1762 255.966 98.0042L228.786 86.8437C228.379 86.6787 227.915 86.8682 227.743 87.272Z" fill="#CDB8DD"/>
<path d="M239.988 97.5962L241.579 96.206C241.874 95.9462 242.337 96.1393 242.365 96.5325L242.502 98.6389C242.513 98.7934 242.597 98.9338 242.734 99.0146L244.549 100.096C244.886 100.296 244.847 100.798 244.482 100.945L242.52 101.728C242.376 101.784 242.267 101.911 242.232 102.065L241.761 104.126C241.674 104.509 241.186 104.625 240.933 104.323L239.585 102.697C239.486 102.578 239.332 102.515 239.177 102.529L237.075 102.718C236.681 102.753 236.422 102.325 236.632 101.992L237.759 100.205C237.843 100.071 237.854 99.9098 237.794 99.7658L236.962 97.8244C236.808 97.4628 237.134 97.0802 237.517 97.1785L239.564 97.7015C239.711 97.7367 239.873 97.7016 239.988 97.5962Z" fill="white"/>
<path d="M49.1121 71.5121C49.0138 71.7965 48.6768 71.9123 48.424 71.7509C46.3422 70.4063 38.2711 64.8734 35.7575 58.3189C35.7013 58.182 35.6486 58.0416 35.5995 57.8977C34.1671 53.7305 36.3824 49.1876 40.5495 47.7553C44.7202 46.3194 49.2631 48.5347 50.6954 52.7018C50.7446 52.8458 50.7902 52.9897 50.8288 53.1301C52.8791 59.8426 49.9266 69.174 49.1121 71.5121Z" fill="#F47E76"/>
<path d="M43.1438 58.0279C44.6504 58.0279 45.8716 56.8066 45.8716 55.3001C45.8716 53.7935 44.6504 52.5723 43.1438 52.5723C41.6373 52.5723 40.416 53.7935 40.416 55.3001C40.416 56.8066 41.6373 58.0279 43.1438 58.0279Z" fill="#F1F1F2"/>
<path d="M40.4865 215.869L27.4618 209.844C27.2512 209.746 27.2687 209.44 27.4899 209.37L34.6166 207.05C34.7149 207.018 34.8202 207.014 34.9185 207.039L53.4339 211.835L40.4865 215.869Z" fill="#ACC9E2"/>
<path d="M17.193 216.469L27.7953 225.214C28.1077 225.47 28.5255 225.561 28.9152 225.452L69.1513 214.401C69.6463 214.264 69.8183 213.65 69.4672 213.281C68.0314 211.778 64.619 208.808 60.3991 209.258C57.3799 209.581 35.2379 216.026 31.1726 217.216C30.7478 217.339 30.3054 217.374 29.8666 217.322L17.4949 215.77C17.1017 215.721 16.8875 216.216 17.193 216.469Z" fill="#91B6DB"/>
<path d="M51.6751 216.384L46.3844 227.148C45.8438 228.25 44.9135 229.117 43.776 229.584L34.6868 233.302C33.9917 233.587 33.3212 232.846 33.6722 232.182L40.3671 219.498C40.5286 219.189 40.8095 218.965 41.1465 218.87L51.3767 216.023C51.5873 215.963 51.7734 216.184 51.6751 216.384Z" fill="#759CBC"/>
<path d="M94.9303 179.519L84.5737 170.956C85.5357 170.012 86.6415 168.678 87.8457 167.01C88.4776 173.421 94.5336 179.147 94.9303 179.519Z" fill="#CA6734"/>
<path d="M148.079 80.4924C151.094 81.3349 151.48 85.8146 150.332 87.4997C153.19 83.1851 150.884 80.1589 148.079 80.4924Z" fill="#D89B87"/>
<path d="M137.747 99.6925C143.023 96.8103 142.848 91.0457 142.139 87.9844C143.609 90.9334 144.951 99.1379 137.747 99.6925Z" fill="#6D4F44"/>
<path d="M67.5081 155.744C65.0928 164.36 55.5577 173.838 48.4205 177.072L40.6724 169.092C50.2495 165.834 60.406 155.126 60.097 149.137L67.5081 155.744Z" fill="#F4956C"/>
<path d="M147.475 225.948L141.893 225.003L135.57 223.933C139.063 221.184 142.139 217.319 144.501 212.902C147.731 206.857 149.616 199.772 149.378 193.095L157.779 194.934C159.351 203.304 153.278 221.419 147.475 225.948Z" fill="#F4956C"/>
<path d="M152.267 193.326C152.256 193.456 152.249 193.59 152.239 193.72L149.377 193.095L152.267 193.326Z" fill="#F37B34"/>
<path d="M37.7446 113.883C35.3819 116.544 32.2223 119.97 34.3182 121.564C36.414 123.162 42.2663 119.237 42.2663 119.237C42.2663 119.237 33.7845 128.249 42.6665 137.464C42.6665 137.464 33.788 130.425 39.9071 121.333C38.1764 122.098 36.4491 122.477 35.3292 122.551C33.4124 122.677 32.6225 121.828 32.6576 120.599C32.7138 118.594 37.7446 113.883 37.7446 113.883Z" fill="#D89B87"/>
<path d="M32.1273 125.953C32.1273 125.953 33.3561 127.936 31.6253 128.607C29.2205 129.54 25.4043 124.229 23.3787 120.669C24.2423 123.994 28.0549 129.558 30.8635 129.47C33.5386 129.39 32.7558 126.521 32.1273 125.953Z" fill="#D89B87"/>
<path d="M30.2983 128.582C30.2983 128.582 31.0075 131.292 29.21 131.91C26.6542 132.795 23.6877 130.004 21.6936 126.346C21.8832 128.557 25.1587 132.788 28.2165 132.693C30.86 132.609 30.7301 130.59 30.2983 128.582Z" fill="#D89B87"/>
<path d="M25.4394 136.467C24.8145 136.586 24.2212 136.597 23.5261 136.052L21.546 133.416C21.3459 133.153 21.1739 132.868 21.0335 132.573C21.03 132.57 21.03 132.57 21.03 132.566C20.8474 132.11 20.7035 131.639 20.6087 131.169C20.556 130.92 20.5174 130.671 20.4963 130.425C20.5139 130.565 20.5385 130.709 20.5736 130.857C20.5736 130.857 20.5736 130.857 20.5736 130.86C21.1107 133.237 23.6489 135.905 25.2639 135.933C26.7945 135.954 27.6757 133.879 27.3352 132.605C28.1005 133.697 27.1877 136.126 25.4394 136.467Z" fill="#D89B87"/>
<path d="M24.309 95.0586C19.5205 97.9619 29.8138 120.181 29.8138 120.181C29.8138 120.181 22.6239 99.7383 24.309 95.0586Z" fill="#D89B87"/>
<path opacity="0.29" d="M19.9382 196.366C-18.374 134.704 62.358 65.7123 121.404 136.632C169.824 194.79 236.215 195.053 247.2 128.599" stroke="#192440" stroke-width="3" stroke-miterlimit="10" stroke-linecap="round" stroke-linejoin="round"/>
<path d="M108.288 175.646C111.343 178.388 116.124 181.544 116.71 181.927C115.994 181.52 109.194 177.581 107.53 176.177C107.755 175.966 108.011 175.787 108.288 175.646Z" fill="#D89B87"/>
<path d="M115.44 188.506C111.49 186.954 106.947 184.055 105.666 183.044C105.732 182.921 105.806 182.805 105.89 182.696L106.094 182.429C110.051 185.259 114.109 187.829 115.44 188.506Z" fill="#D89B87"/>
<path d="M114.386 193.358C113.958 193.112 107.646 189.464 106.329 188.745C106.463 188.597 106.621 188.467 106.793 188.352L114.386 193.358Z" fill="#D89B87"/>
<path d="M121.825 177.289L121.25 176.973C121.71 177.082 122.198 176.721 122.159 176.198L121.843 164.075C122.254 169.138 122.636 174.362 122.801 176.665C122.84 177.184 122.282 177.542 121.825 177.289Z" fill="#D89B87"/>
<path d="M41.8028 148.828C40.9005 149.702 38.1762 149.828 36.477 149.635C35.9294 148.884 35.3922 148.147 34.8691 147.427C36.7052 149.923 41.2726 149.204 41.8028 148.828Z" fill="#D89B87"/>
</svg>
