<svg width="280" height="280" viewBox="0 0 280 280" fill="none" xmlns="http://www.w3.org/2000/svg">
<path d="M255.147 160.045C255.147 172.577 250.515 214.084 203.035 233.039C199.612 234.411 195.963 235.659 192.081 236.774C179.249 240.454 163.822 242.642 145.289 242.642C137.727 242.642 130.418 241.771 123.435 240.155C96.6329 233.945 74.6809 216.726 62.0553 195.462C54.0618 182.009 49.8028 166.935 50.409 152.009C52.2704 106.061 81.5708 61.3755 136.453 61.3755C185.148 61.3755 193.802 81.6993 211.997 102.979C233.447 128.063 255.147 132.579 255.147 160.045Z" fill="#E2E1F0"/>
<path d="M105.602 88.1616C99.1978 85.659 102.139 79.9155 103.908 78.8119C96.4698 76.7484 96.1512 67.7679 103.636 66.5166C96.2483 55.7679 109.577 47.3741 112.962 56.8715C113.479 40.9661 132.524 38.9804 133.639 48.4778C141.676 34.4143 159.862 42.1475 150.069 57.7536C158.685 50.0943 163.029 55.9855 160.453 60.5516C171.349 57.0192 177.093 61.9505 163.325 75.058C169.585 72.1862 170.984 84.4077 157.286 92.067C143.591 99.7185 105.602 88.1616 105.602 88.1616Z" fill="#192440"/>
<path d="M104.743 124.484L149.214 126.054C149.214 126.054 155.988 118.298 155.595 117.319C155.203 116.335 151.768 112.706 151.472 112.706C151.177 112.706 144.011 110.056 141.264 109.465C138.516 108.874 133.41 107.627 126.637 105.746C119.863 103.865 104.646 108.482 103.371 109.072C102.097 109.663 97.383 111.626 96.8933 113.098C96.4037 114.571 97.9736 119.382 98.7586 120.361C99.5397 121.344 104.743 124.484 104.743 124.484Z" fill="#9E5F44"/>
<path d="M203.036 233.04C199.612 234.411 195.963 235.659 192.081 236.774C179.249 240.454 163.822 242.642 145.29 242.642C137.728 242.642 130.418 241.771 123.435 240.155C120.889 239.564 118.391 238.876 115.939 238.095C111.299 236.619 106.826 234.804 102.551 232.698C92.3973 227.692 83.3469 221.036 75.7536 213.26C74.2109 211.678 63.4778 227.665 62.0555 225.994C60.334 223.974 67.9505 204.275 66.4233 202.142C64.865 199.966 63.4078 197.739 62.0555 195.462C65.7433 171.889 75.5477 144.742 85.6474 133.325C95.9103 121.713 109.158 122.829 119.763 122.829C138.808 122.829 153.458 126.598 160.088 127.776C166.713 128.953 172.037 132.451 174.543 140.697C176.953 148.64 201.252 227.269 203.036 233.04Z" fill="#F37B34"/>
<path d="M131.471 198.501C128.86 202.192 125.176 207.438 121.931 212.21C116.863 219.668 114.621 228.741 115.872 237.671C115.892 237.815 115.911 237.955 115.939 238.095C111.299 236.618 106.826 234.804 102.551 232.697L105.967 212.887L120.555 211.561C124.822 205.317 129.236 198.675 131.86 194.708C133.367 192.431 133.748 189.586 132.897 186.99L132.376 185.401C132.404 185.455 132.431 185.51 132.462 185.568C134.553 189.726 134.16 194.7 131.471 198.501Z" fill="#CA6734"/>
<path d="M140.378 135.054C136.569 135.812 136.045 137.149 135.209 137.91C134.533 138.524 133.655 138.765 130.67 138.019C128.77 137.545 127.15 137.11 125.77 136.663C122.3 135.536 120.334 134.347 119.172 132.338C117.547 129.528 99.3415 128.176 100.224 126.921C101.11 125.662 103.931 123.233 103.931 123.233C103.931 123.233 106.228 122.802 107.809 122.802C109.391 122.802 133.643 123.233 133.643 123.233C140.35 123.995 147.726 122.763 149.941 125.537C152.16 128.312 147.268 133.686 140.378 135.054Z" fill="#192440"/>
<path d="M137.529 135.085C136.398 136.31 135.746 137.215 135.209 137.911C134.533 138.525 131.79 139.457 130.67 138.019C129.466 136.473 127.15 137.11 125.77 136.663C126.031 136.107 127.391 133.185 127.566 133.073C127.764 132.952 135.225 123.649 135.225 123.649C139.2 123.649 140.623 131.747 137.529 135.085Z" fill="#2C3C60"/>
<path d="M160.087 77.409C160.087 77.409 158.98 95.0087 153.901 106.348C153.027 108.303 151.973 109.935 150.827 111.299C149.867 112.445 148.845 113.401 147.808 114.198C142.927 117.959 137.778 118.2 137.778 118.2L135.559 127.853L135.054 130.057C135.054 130.057 134.094 135.726 129.236 136.387C129.073 136.41 128.91 136.426 128.747 136.441C119.327 137.277 107.195 125.759 107.195 125.759L107.413 124.025L109.34 108.672L109.709 105.746L112.597 82.76C112.597 82.76 119.957 74.9064 122.242 73.5074C124.523 72.1085 128.133 69.6797 129.236 68.9414C130.34 68.2069 155.374 67.5424 156.112 67.9854C156.846 68.4284 160.087 77.409 160.087 77.409Z" fill="#EEB49B"/>
<path d="M82.1575 137.743L87.4619 130.03C87.4619 130.03 94.3828 130.422 95.1678 130.912C95.9528 131.402 106.359 141.517 107.195 144.509C104.657 142.438 99.8582 138.268 94.9968 136.018C91.3362 134.324 87.0538 134.662 83.638 136.811L82.1575 137.743Z" fill="#CA6734"/>
<path d="M114.143 84.4778C104.269 77.3353 95.7351 99.7187 112.227 98.9842L114.143 84.4778Z" fill="#EEB49B"/>
<path d="M111.987 83.3587C119.716 86.18 128.918 71.3005 133.643 71.5919C138.369 71.8834 144.186 74.2422 147.571 74.2422C150.955 74.2422 154.565 73.2124 155.448 74.2422C156.33 75.272 160.379 84.9909 160.379 84.9909C160.379 84.9909 164.428 78.2176 164.354 77.9222C164.28 77.6269 160.084 70.2629 160.084 70.2629L160.6 61.8691C160.6 61.8691 141.532 64.4456 139.395 64.5194C137.261 64.5932 129.749 64.8886 126.73 65.0362C123.711 65.1839 122.238 63.4896 118.189 66.8044L111.987 83.3587Z" fill="#192440"/>
<path d="M227.09 190.651C227.634 191.638 227.914 192.734 227.914 193.841C227.914 194.347 227.855 194.86 227.735 195.361C226.223 201.718 221.136 217.674 208.165 217.674C207.43 217.674 206.715 217.628 206.028 217.538C202.363 217.072 199.355 215.42 196.907 213.209C189.687 206.7 187.328 195.365 187.328 195.365L160.087 127.527C178.962 133.123 187.845 140.879 199.037 155.603C210.228 170.331 211.258 181.62 211.258 181.62L215.995 181.946L228.78 182.825L227.14 190.414L227.09 190.651Z" fill="#F37B34"/>
<path d="M228.78 182.825L227.14 190.414C222.473 190.83 214.324 190.208 207.943 186.38C207.943 186.38 211.926 184.076 215.995 181.946L228.78 182.825Z" fill="#F4956C"/>
<path d="M206.028 217.538C202.363 217.072 199.355 215.42 196.907 213.209L175.41 143.529C185.848 172.429 194.84 207.808 206.028 217.538Z" fill="#CA6734"/>
<path d="M222.069 182.914L187.589 193.81L203.098 130.624L237.582 119.728L222.069 182.914Z" fill="#192440"/>
<path d="M228.683 140.378L222.749 142.255C222.613 142.298 222.481 142.177 222.516 142.037L225.267 130.83C225.314 130.636 225.458 130.484 225.648 130.422L231.508 128.568C231.636 128.529 231.761 128.642 231.73 128.774L228.951 140.094C228.916 140.23 228.815 140.335 228.683 140.378Z" fill="white"/>
<path d="M234.819 160.709C232.856 170.627 229.627 178.981 228.78 182.825L220.977 182.86C220.977 182.86 212.303 182.51 208.511 182.553C204.426 182.599 200.521 179.098 202.522 176.79C202.608 176.681 202.713 176.58 202.829 176.479C200.595 176.176 198.085 172.329 200.828 169.939C201.069 169.725 201.357 169.523 201.687 169.336C199.293 168.342 199.072 162.785 202.386 160.869C202.355 160.861 202.324 160.849 202.289 160.838C202.176 160.811 202.068 160.764 201.967 160.713C201.959 160.709 201.955 160.706 201.947 160.706C201.566 160.5 201.267 160.165 201.053 159.75C199.981 157.69 200.983 153.61 204.594 153.396C209.96 153.081 219.407 153.738 223.087 153.493C224.673 153.388 226.11 152.864 227.237 152.304C228.722 151.558 229.806 150.198 230.218 148.585L235.11 129.89C241.196 130.721 236.785 150.792 234.819 160.709Z" fill="#F1AF8C"/>
<path d="M203.137 130.57L187.624 193.756L185.214 191.343C184.697 190.826 184.491 190.08 184.662 189.373L199.538 128.782L199.74 127.962C199.791 127.772 199.888 127.601 200.024 127.457L200.412 127.846L203.137 130.57Z" fill="#2C3C60"/>
<path d="M237.617 119.673L203.137 130.569L200.413 127.849L200.024 127.46C200.156 127.313 200.327 127.2 200.525 127.134C200.533 127.13 200.545 127.126 200.552 127.122L201.322 126.881L233.634 116.669C234.092 116.525 234.59 116.646 234.928 116.984L237.617 119.673Z" fill="#4E6284"/>
<path d="M229.152 133.91C229.738 132.913 229.638 131.766 228.928 131.349C228.217 130.931 227.166 131.4 226.58 132.397C225.993 133.394 226.093 134.541 226.804 134.959C227.514 135.377 228.565 134.907 229.152 133.91Z" fill="#0E172D"/>
<path d="M128.747 136.441C119.327 137.277 107.195 125.759 107.195 125.759L107.413 124.025C109.826 126.108 112.573 128.028 115.639 129.198C121.604 131.467 125.98 134.3 128.747 136.441Z" fill="#F37B34"/>
<path d="M164.859 129.062C164.859 129.062 162.295 131.16 160.97 133.367C160.97 133.367 160.309 135.186 157.95 138.816C156.384 141.233 143.634 143.001 136.562 142.43C133.006 142.15 130.884 141.275 132.33 139.601C134.378 137.222 139.161 131.887 143.622 126.932C146.529 123.703 149.296 120.641 151.087 118.663C152.078 117.567 151.69 115.822 150.326 115.251L147.808 114.198C148.845 113.401 149.867 112.445 150.827 111.299C152.082 111.501 152.941 111.971 154.907 113.145C156.862 114.31 160.204 116.945 161.657 118.111C162.12 118.48 162.442 118.993 162.582 119.568L164.859 129.062Z" fill="#F37B34"/>
<path d="M128.409 218.533H129.24C129.501 218.533 129.714 218.743 129.714 219.007V221.436C129.714 221.696 129.505 221.91 129.24 221.91H128.541C128.288 221.91 128.082 221.716 128.071 221.463L127.939 219.034C127.923 218.762 128.137 218.533 128.409 218.533Z" fill="#192440"/>
<path d="M164.269 213.901L163.491 213.559L158.618 152.996C158.385 150.089 157.449 147.167 155.96 144.524C154.872 142.593 153.489 140.813 151.872 139.298C151.973 139.045 152.102 138.808 152.249 138.586C154.045 140.234 155.568 142.197 156.738 144.33H156.741C158.226 147.019 159.159 149.984 159.396 152.934L164.269 213.901Z" fill="#192440"/>
<path d="M163.542 213.528H164.374C164.634 213.528 164.848 213.738 164.848 214.002V216.431C164.848 216.691 164.638 216.905 164.374 216.905H163.674C163.422 216.905 163.216 216.71 163.204 216.458L163.072 214.029C163.056 213.753 163.274 213.528 163.542 213.528Z" fill="#192440"/>
<path d="M65.9258 139.752L26.3935 153.893C24.6953 154.5 22.8223 153.618 22.2161 151.915L10.4609 119.059L56.1486 102.715L67.9038 135.571C68.51 137.277 67.624 139.146 65.9258 139.752Z" fill="#9D78B4"/>
<path d="M12.1669 114.132L51.6992 99.9911C53.3973 99.3849 55.2704 100.267 55.8766 101.969L56.1447 102.723L10.461 119.064L10.1928 118.31C9.58274 116.611 10.4687 114.742 12.1669 114.132Z" fill="#C1A7D3"/>
<path opacity="0.2" d="M25.4143 146.118L17.6501 124.41C17.4014 123.715 17.7628 122.949 18.4584 122.701L52.2743 110.603C52.9699 110.355 53.7355 110.716 53.9842 111.412L61.7484 133.115C61.9971 133.811 61.6357 134.576 60.9401 134.825L27.1242 146.922C26.4286 147.171 25.663 146.809 25.4143 146.118Z" fill="white"/>
<path d="M25.4221 127.041L19.3677 129.206L17.6501 124.41C17.4014 123.715 17.7628 122.949 18.4584 122.701L23.2537 120.983L25.4221 127.041Z" stroke="white" stroke-miterlimit="10"/>
<path d="M29.3087 118.829L23.2529 120.995L25.419 127.051L31.4747 124.885L29.3087 118.829Z" stroke="white" stroke-miterlimit="10"/>
<path d="M35.3638 116.665L29.3081 118.831L31.4742 124.887L37.5299 122.721L35.3638 116.665Z" stroke="white" stroke-miterlimit="10"/>
<path d="M41.4178 114.497L35.3621 116.663L37.5281 122.719L43.5839 120.553L41.4178 114.497Z" stroke="white" stroke-miterlimit="10"/>
<path d="M47.4732 112.333L41.4175 114.499L43.5836 120.555L49.6393 118.389L47.4732 112.333Z" stroke="white" stroke-miterlimit="10"/>
<path d="M55.6979 116.211L49.6435 118.375L47.479 112.321L52.2743 110.603C52.9699 110.355 53.7355 110.716 53.9842 111.412L55.6979 116.211Z" stroke="white" stroke-miterlimit="10"/>
<path d="M25.419 127.052L19.3633 129.218L21.5294 135.274L27.5851 133.108L25.419 127.052Z" stroke="white" stroke-miterlimit="10"/>
<path d="M31.473 124.884L25.4172 127.05L27.5833 133.106L33.6391 130.939L31.473 124.884Z" stroke="white" stroke-miterlimit="10"/>
<path d="M37.5281 122.72L31.4724 124.886L33.6385 130.942L39.6942 128.776L37.5281 122.72Z" stroke="white" stroke-miterlimit="10"/>
<path d="M43.5821 120.552L37.5264 122.718L39.6924 128.774L45.7482 126.608L43.5821 120.552Z" fill="white"/>
<path d="M49.6412 118.387L43.5854 120.553L45.7515 126.609L51.8073 124.443L49.6412 118.387Z" stroke="white" stroke-miterlimit="10"/>
<path d="M55.6951 116.219L49.6394 118.385L51.8055 124.441L57.8612 122.274L55.6951 116.219Z" stroke="white" stroke-miterlimit="10"/>
<path d="M27.5833 133.108L21.5276 135.274L23.6937 141.33L29.7494 139.164L27.5833 133.108Z" stroke="white" stroke-miterlimit="10"/>
<path d="M33.6373 130.939L27.5815 133.105L29.7476 139.161L35.8034 136.995L33.6373 130.939Z" fill="white"/>
<path d="M39.6961 128.774L33.6404 130.94L35.8064 136.996L41.8622 134.83L39.6961 128.774Z" stroke="white" stroke-miterlimit="10"/>
<path d="M45.7513 126.61L39.6956 128.776L41.8616 134.832L47.9174 132.666L45.7513 126.61Z" stroke="white" stroke-miterlimit="10"/>
<path d="M51.8052 124.442L45.7495 126.608L47.9156 132.664L53.9713 130.498L51.8052 124.442Z" stroke="white" stroke-miterlimit="10"/>
<path d="M57.8604 122.278L51.8047 124.444L53.9708 130.5L60.0265 128.334L57.8604 122.278Z" stroke="white" stroke-miterlimit="10"/>
<path d="M31.9195 145.208L27.1242 146.926C26.4286 147.175 25.6631 146.813 25.4144 146.118L23.6968 141.322L29.7512 139.158L31.9195 145.208Z" stroke="white" stroke-miterlimit="10"/>
<path d="M35.8065 136.997L29.7507 139.163L31.9168 145.219L37.9725 143.053L35.8065 136.997Z" stroke="white" stroke-miterlimit="10"/>
<path d="M41.8604 134.829L35.8047 136.995L37.9708 143.051L44.0265 140.885L41.8604 134.829Z" stroke="white" stroke-miterlimit="10"/>
<path d="M47.9156 132.665L41.8599 134.831L44.0259 140.887L50.0817 138.721L47.9156 132.665Z" stroke="white" stroke-miterlimit="10"/>
<path d="M53.9696 130.497L47.9138 132.663L50.0799 138.719L56.1356 136.553L53.9696 130.497Z" stroke="white" stroke-miterlimit="10"/>
<path d="M60.9361 134.829L56.1408 136.547L53.9763 130.492L60.0307 128.328L61.7483 133.123C61.9931 133.815 61.6317 134.58 60.9361 134.829Z" stroke="white" stroke-miterlimit="10"/>
<path d="M18.8741 114.237C17.65 114.676 16.3015 114.039 15.8624 112.811C15.4233 111.583 16.0606 110.238 17.2886 109.799C18.5166 109.36 19.8611 109.997 20.3002 111.225" stroke="#945EA5" stroke-width="3" stroke-miterlimit="10"/>
<path d="M25.7991 111.758C24.575 112.197 23.2266 111.56 22.7875 110.332C22.3484 109.104 22.9857 107.759 24.2136 107.32C25.4377 106.881 26.7862 107.518 27.2253 108.746" stroke="#945EA5" stroke-width="3" stroke-miterlimit="10"/>
<path d="M32.7276 109.282C31.5035 109.721 30.1551 109.083 29.7159 107.856C29.2768 106.631 29.9141 105.283 31.1421 104.844C32.3662 104.405 33.7146 105.042 34.1537 106.27" stroke="#945EA5" stroke-width="3" stroke-miterlimit="10"/>
<path d="M39.6526 106.803C38.4286 107.242 37.0801 106.605 36.641 105.377C36.2019 104.153 36.8392 102.804 38.0672 102.365C39.2912 101.926 40.6397 102.564 41.0788 103.792" stroke="#945EA5" stroke-width="3" stroke-miterlimit="10"/>
<path d="M46.5813 104.324C45.3573 104.763 44.0088 104.125 43.5697 102.898C43.1306 101.67 43.7679 100.325 44.9959 99.8859C46.2199 99.4467 47.5684 100.084 48.0075 101.312" stroke="#945EA5" stroke-width="3" stroke-miterlimit="10"/>
<path d="M206.07 73.4065C210.354 73.4065 213.827 69.9338 213.827 65.65C213.827 61.3662 210.354 57.8936 206.07 57.8936C201.787 57.8936 198.314 61.3662 198.314 65.65C198.314 69.9338 201.787 73.4065 206.07 73.4065Z" fill="#BC5D5B"/>
<path d="M216.811 70.9622L197.109 57.7071L204.462 47.9804C208.08 43.1929 214.81 42.0659 219.792 45.4157C224.82 48.8004 226.285 55.5504 223.111 60.7148L216.811 70.9622Z" fill="#F47E76"/>
<path d="M221.735 45.9829C223.728 45.9829 225.345 44.3666 225.345 42.3728C225.345 40.379 223.728 38.7627 221.735 38.7627C219.741 38.7627 218.125 40.379 218.125 42.3728C218.125 44.3666 219.741 45.9829 221.735 45.9829Z" fill="#C96B6B"/>
<path d="M215.677 75.843L193.01 60.5904C192.532 60.2679 192.605 59.5412 193.142 59.3236L197.109 57.7031L216.811 70.9583L216.807 75.2407C216.804 75.8236 216.158 76.1655 215.677 75.843Z" fill="#C96B6B"/>
<path d="M102.384 46.0454L92.0786 37.7993" stroke="#192440" stroke-width="2" stroke-miterlimit="10" stroke-linecap="round" stroke-linejoin="round"/>
<path d="M112.791 40.3484L111.858 27" stroke="#192440" stroke-width="2" stroke-miterlimit="10" stroke-linecap="round" stroke-linejoin="round"/>
<path d="M96.2482 58.9038H85.5967" stroke="#192440" stroke-width="2" stroke-miterlimit="10" stroke-linecap="round" stroke-linejoin="round"/>
<path d="M110.413 87.5205C106.733 88.2083 106.558 92.5179 108.349 94.6824C107.195 91.3249 108.128 88.9467 110.413 87.5205Z" fill="#D89B87"/>
<path d="M133.643 96.6523C138.955 99.5474 150.59 98.1757 152.751 97.585C149.754 109.76 145.682 112.227 141.314 112.064C136.06 111.87 132.819 107.354 133.643 96.6523Z" fill="#151C2D"/>
<path d="M133.406 106.593C137.308 104.972 139.737 106.297 140.525 107.156C141.163 105.093 147.077 107.525 147.299 109.954C147.52 112.383 145.507 114.174 141.971 113.661C138.439 113.144 134.02 111.648 133.799 109.414C133.581 107.179 133.406 106.593 133.406 106.593Z" fill="#E77472"/>
<path d="M134.793 96.4312C134.972 97.5814 135.139 98.4674 135.376 99.097C136.453 101.965 148.367 102.163 150.116 99.5633L151.301 97.4882L134.793 96.4312Z" fill="white"/>
<path d="M137.778 118.2L135.559 127.853C126.637 124.185 122.902 114.52 122.902 114.52C124.278 115.55 127.418 118.495 137.778 118.2Z" fill="#D89B87"/>
<path d="M147.52 144.412C151.08 142.523 162.011 144.559 165.217 146.424C162.71 143.899 151.177 141.715 147.52 144.412Z" fill="#D89B87"/>
<path d="M220.647 162.746C213.431 162.785 202.387 160.869 202.387 160.869C202.356 160.861 202.324 160.85 202.289 160.838C202.192 160.807 202.084 160.764 201.967 160.714C201.959 160.71 201.955 160.706 201.947 160.706C201.567 160.5 201.267 160.166 201.054 159.75C205.371 161.075 217.13 162.338 220.647 162.746Z" fill="#D89B87"/>
<path d="M217.775 170.44C213.566 171.388 202.705 170.296 200.828 169.939C201.069 169.725 201.357 169.523 201.687 169.336C204.559 169.888 215.272 170.331 217.775 170.44Z" fill="#D89B87"/>
<path d="M216.928 176.774C214.122 177.625 205.173 177.03 202.522 176.789C202.608 176.681 202.713 176.58 202.829 176.479C205.076 176.828 214.647 176.956 216.928 176.774Z" fill="#D89B87"/>
<path d="M124.119 145.736C124.119 147.392 123.073 148.799 121.608 149.335H121.605C121.356 149.428 121.095 149.494 120.827 149.529C120.652 149.556 120.474 149.568 120.291 149.568C118.173 149.568 116.459 147.854 116.459 145.736C116.459 145.227 116.557 144.745 116.739 144.302C116.84 144.05 116.969 143.813 117.116 143.591C117.808 142.573 118.97 141.909 120.291 141.909C122.405 141.909 124.119 143.622 124.119 145.736Z" fill="#9E5F44"/>
<path d="M122.926 155.731L63.804 223.247L107.731 166.721C111.761 161.545 120.885 153.781 122.926 155.731Z" fill="#CA6734"/>
<path d="M129.135 218.906L128.358 218.564L123.485 158.001C123.252 155.094 122.315 152.172 120.827 149.53C119.739 147.598 118.356 145.818 116.739 144.303C116.84 144.05 116.968 143.813 117.116 143.592C118.911 145.239 120.435 147.202 121.604 149.335H121.608C123.093 152.024 124.025 154.989 124.262 157.939L129.135 218.906Z" fill="#192440"/>
<path d="M165.217 146.425C165.217 146.425 168.909 150.808 166.099 155.359C162.757 160.776 156.676 165.618 145.387 165.816L143.72 168.284L137.04 178.185L123.788 167.681L122.242 155.825C127.321 150.303 145.138 130.325 147.497 129.097C149.556 128.028 152.704 128.716 153.594 129.89V129.894C153.722 130.061 153.804 130.24 153.827 130.422C153.827 130.422 154.293 130.271 154.946 130.181C156.295 129.991 158.451 130.057 158.98 132.241C158.98 132.241 159.341 132.245 159.843 132.311C160.911 132.451 162.594 132.855 162.714 134.056C162.718 134.075 162.718 134.083 162.718 134.083C162.718 134.083 162.718 134.079 162.726 134.071C162.769 134.009 162.948 133.733 163.235 133.294C163.301 133.197 163.371 133.092 163.445 132.979C165.983 129.183 174.45 116.981 177.194 118.889C180.431 121.146 165.217 146.425 165.217 146.425Z" fill="#F1AF8C"/>
<path d="M132.897 186.99C133.748 189.586 133.367 192.431 131.86 194.708C127.43 201.408 117.897 215.72 112.597 222.901C105.528 232.472 93.8934 252.944 76.6629 252.944C64.2937 252.944 57.9635 241.457 54.4272 225.847C51.1435 211.336 64.9971 163.115 82.1577 137.743C83.3079 136.865 82.7406 138.742 84.0774 137.098L84.3377 138.482L63.8041 223.247L115.74 163.329L122.242 155.825C126.306 164.926 130.966 172.904 137.04 178.185L132.376 185.401L132.897 186.99Z" fill="#F37B34"/>
<path d="M132.33 139.601L128.953 140.262C128.44 140.363 127.919 140.436 127.398 140.479L121.977 140.949C120.267 141.097 118.573 141.4 116.918 141.851L107.195 144.509C102.12 137.149 95.6069 132.808 87.7067 131.378L82.1575 137.739V131.359C82.1575 129.179 82.9036 127.065 84.2715 125.37L97.8103 108.583C98.3232 107.946 99.0499 107.522 99.8582 107.386L109.709 105.742L109.34 108.668L102.695 111.027C99.4696 112.17 98.9256 115.543 101.292 118.014C103.01 119.806 105.058 121.993 107.413 124.022L107.195 125.755C107.195 125.755 119.327 137.273 128.747 136.438C129.333 136.888 129.85 137.312 130.293 137.689C131.65 138.851 132.33 139.601 132.33 139.601Z" fill="#F37B34"/>
<path d="M104.949 110.23C98.9179 111.812 97.6006 115.573 97.0837 117.711C99.8389 114.885 101.479 115.305 101.844 115.429C102.213 115.55 104.949 110.23 104.949 110.23Z" fill="#9E5F44"/>
<path d="M150.326 115.251C152.724 116.23 154.601 119.013 154.989 119.782C153.555 118.826 152.292 117.812 150.485 117.959C148.678 118.107 150.326 115.251 150.326 115.251Z" fill="#9E5F44"/>
<path d="M137.04 178.185L132.376 185.402C128.727 183.874 117.936 172.341 115.74 163.329L122.242 155.825C126.306 164.926 130.966 172.904 137.04 178.185Z" fill="#F4956C"/>
<path d="M192.081 236.774C179.249 240.454 163.822 242.641 145.289 242.641C137.727 242.641 130.418 241.771 123.435 240.154L129.135 232.033L176.653 221.906C176.653 221.906 184.806 232.161 192.081 236.774Z" fill="#F4956C"/>
<path d="M146.929 135.676C146.02 139.259 141.827 149.417 145.507 149.79C147.275 149.969 148.286 147.524 148.286 147.524C146.759 150.598 144.458 150.672 143.704 149.44C142.892 148.111 143.04 143.623 146.929 135.676Z" fill="#D89B87"/>
<path d="M151.872 143.114C153.19 139.014 154.713 131.673 153.827 130.422C153.827 130.422 154.293 130.271 154.946 130.181C155.533 133.076 153.559 141.062 151.872 143.114Z" fill="#D89B87"/>
<path d="M156.314 143.53C159.167 138.688 159.369 134.456 158.98 132.241C158.98 132.241 159.341 132.245 159.843 132.311C160.488 134.366 158.825 140.662 156.314 143.53Z" fill="#D89B87"/>
<path d="M159.446 143.899C160.628 142.255 162.687 137.934 162.718 134.083C162.718 134.083 162.718 134.079 162.726 134.071C162.769 134.009 162.948 133.733 163.235 133.294C163.301 133.197 163.371 133.092 163.445 132.979C163.896 135.221 162.998 140.168 159.446 143.899Z" fill="#D89B87"/>
<path d="M145.387 165.816L143.72 168.283C142.282 167.603 139.943 166.057 137.63 162.598C138.843 164.215 142.515 165.975 145.387 165.816Z" fill="#D89B87"/>
<path d="M147.52 144.412C145.115 146.743 151.62 152.032 161.708 152.215C153.349 150.963 145.068 151.072 142.601 153.431C143.448 152.39 145.36 150.563 147.124 150.023C147.466 149.918 147.606 149.514 147.427 149.203C146.58 147.738 145.997 145.562 147.52 144.412Z" fill="#D89B87"/>
<path opacity="0.29" d="M56.2847 156.769C156.87 182.859 177.644 72.2561 243.656 86.9801C276.018 94.2003 280.472 148.433 246.306 156.769" stroke="#192440" stroke-width="3" stroke-miterlimit="10" stroke-linecap="round" stroke-linejoin="round"/>
</svg>
