<svg width="280" height="280" viewBox="0 0 280 280" fill="none" xmlns="http://www.w3.org/2000/svg">
<path d="M212.18 186.01C209.82 202.556 199.436 218.455 181.803 229.006C168.668 236.868 151.507 241.764 130.628 241.764C112.976 241.764 97.7583 237.007 85.3587 229.006C57.0131 210.707 43.3911 175.419 49.0786 141.074C56.9107 93.7891 97.6705 69.1216 133.541 69.0484C153.352 69.0082 182.63 83.2963 184.285 128.737C185.075 150.334 216.319 157.02 212.18 186.01Z" fill="#E2E1F0"/>
<path d="M209.812 172.074C213.93 167.521 211.43 156.703 211.43 156.703L202.28 168.169L207.232 173.809L209.812 172.074Z" fill="#9E5F44"/>
<path d="M233.806 122.864C232.598 131.102 230.015 144.589 220.309 150.228C216.374 152.516 212.118 160 209.413 165.446C207.711 168.875 206.624 171.496 206.624 171.496C206.624 171.496 196.743 165.947 197.006 159.66C197.27 153.372 198.734 138.594 198.734 138.594L200.641 136.639C197.299 129.795 194.155 120.503 194.756 114.171C195.356 107.84 198.917 106.819 201.138 112.089C203.36 117.359 205.208 118.585 205.852 118.472C207.657 118.146 199.912 95.3086 204.418 93.9215C207.971 92.8235 212.74 111.306 212.74 111.306C212.74 111.306 210.431 88.4207 214.866 88.3731C219.302 88.3255 220.539 110.889 220.539 110.889C220.539 110.889 220.309 89.6211 224.283 89.5772C228.862 89.5223 227.01 110.889 227.01 110.889C227.01 110.889 229.301 95.1695 233.067 95.217C236.533 95.261 234.966 114.914 233.806 122.864Z" fill="#EEB49B"/>
<path d="M209.413 165.446C207.711 168.875 206.624 171.496 206.624 171.496C206.624 171.496 196.743 165.948 197.006 159.66C197.27 153.372 198.734 138.594 198.734 138.594C199.125 145.826 202.858 162.493 209.413 165.446Z" fill="#D89B87"/>
<path d="M106.107 123.463C95.2113 120.122 84.6453 120.535 76.3484 124.99C67.9563 129.495 58.5029 141.631 54.0232 149.335C46.8133 161.742 39.9181 229.006 62.6642 229.006H163.907C163.907 229.006 149.966 149.317 146.544 139.139C143.122 128.96 138.295 125.173 127.941 122.669C124.648 121.875 120.42 124.711 117.309 124.796C110.623 124.982 106.107 123.463 106.107 123.463Z" fill="#F37B34"/>
<path d="M209.812 172.074L203.795 178.713L181.166 203.688C180.269 204.678 179.184 205.48 177.974 206.048C176.765 206.616 175.455 206.939 174.12 206.998C172.786 207.057 171.452 206.851 170.197 206.393C168.942 205.934 167.791 205.231 166.809 204.325L146.987 186.026L131.103 123.552C143.302 126.322 158.552 140.867 171.622 156.933C171.649 156.972 171.678 157.008 171.709 157.043L171.892 157.27C173.419 159.151 174.915 161.054 176.372 162.957L192.216 146.195L198.734 138.594C198.734 138.594 199.18 171.518 209.812 172.074Z" fill="#F37B34"/>
<path d="M130.251 76.5405C135.568 76.5405 139.477 68.5877 139.591 63.2699C139.73 56.7993 134.32 43.6238 118.232 54.2118C122.854 44.5022 111.161 31.1876 102.699 52.9638C106.421 39.0563 97.129 28.0438 86.38 58.2779C83.2581 51.4815 77.1572 51.9353 79.6898 63.1345C76.0116 58.0363 66.5143 64.3825 78.4418 71.3838C72.2786 77.558 79.031 85.0936 81.9406 85.2913C84.8502 85.4889 90.6803 87.2786 93.6521 85.2913C96.6239 83.304 99.6616 74.2422 107.245 73.3199C114.828 72.3976 130.251 76.5405 130.251 76.5405Z" fill="#192440"/>
<path d="M163.13 185.527L162.797 229.006H135.129L134.393 185.549C134.39 185.339 134.428 185.13 134.506 184.935C134.585 184.74 134.701 184.562 134.848 184.412C134.996 184.262 135.172 184.143 135.366 184.062C135.56 183.981 135.768 183.939 135.978 183.939H161.549C161.758 183.939 161.964 183.98 162.156 184.06C162.348 184.14 162.523 184.257 162.67 184.405C162.817 184.552 162.933 184.727 163.012 184.92C163.091 185.113 163.131 185.319 163.13 185.527Z" fill="#4879AA"/>
<path d="M142.372 229.006H135.129L134.393 185.549C134.39 185.339 134.428 185.13 134.506 184.935C134.585 184.74 134.701 184.562 134.848 184.412C134.996 184.262 135.172 184.143 135.366 184.062C135.56 183.981 135.768 183.939 135.978 183.939H142.478C139.605 183.932 141.801 220.406 142.372 229.006Z" fill="#3C6384"/>
<path d="M91.6976 110.017C86.0578 113.336 81.0621 116.206 81.5269 117.593C81.9917 118.98 90.7205 125.07 94.168 125.443C97.6156 125.816 116.105 127.559 120.545 125.765C124.984 123.972 129.881 119.254 126.184 116.297C122.488 113.34 122.58 110.288 114.949 108.977C107.318 107.667 91.6976 110.017 91.6976 110.017Z" fill="#9E5F44"/>
<path d="M134.423 124.554C127.711 122.216 117.445 121.451 112.383 121.938C107.322 122.424 112.87 128.258 118.696 128.159C124.523 128.06 131.114 123.083 134.423 124.554Z" fill="#D1D3D9"/>
<path d="M164.02 214.096L163.907 214.162L164.02 214.279L164.188 214.451C164.538 214.813 164.81 215.242 164.99 215.711C165.17 216.181 165.253 216.682 165.235 217.185L164.737 220.42C164.684 220.771 164.542 221.102 164.324 221.382C164.106 221.662 163.82 221.882 163.493 222.02L165.25 229.003H119.805L116.146 211.596L116.329 211.395L125.233 201.543C129.121 201.563 133.001 201.195 136.816 200.445C137.815 200.239 138.734 199.75 139.462 199.036C141.977 196.584 148.246 190.523 150.402 189.154C153.106 187.401 156.576 188.422 155.05 191.716C153.524 195.01 151.306 199.036 152.462 199.808C152.739 199.937 153.043 199.996 153.348 199.98C156.005 200.075 163.047 198.556 163.047 198.556V196.664L164.093 197.14C164.543 197.344 164.928 197.669 165.204 198.078C165.48 198.488 165.636 198.967 165.656 199.46L165.839 203.944C165.848 204.165 165.804 204.386 165.71 204.587C165.617 204.788 165.476 204.964 165.301 205.1L164.437 205.773L164.203 205.956C164.291 206.015 164.379 206.074 164.459 206.139C164.857 206.443 165.186 206.827 165.425 207.267C165.715 207.8 165.867 208.398 165.868 209.005V210.967C165.868 211.549 165.728 212.123 165.459 212.64C165.19 213.157 164.801 213.601 164.324 213.935C164.226 213.995 164.124 214.048 164.02 214.096Z" fill="#F0AE8B"/>
<path d="M132.26 229.007H121.35L116.31 211.399L125.215 201.547C122.682 207.183 125.171 223.934 132.26 229.007Z" fill="#D89B87"/>
<path d="M125.076 107.884C123.636 109.099 122.02 110.087 120.281 110.812C118.737 111.374 117.1 111.638 115.457 111.591C115.161 111.591 115.955 116.624 116.555 120.166C116.878 122.084 117.141 123.563 117.141 123.563L117.317 124.814C116.299 125.323 114.934 126.663 113.613 128.16C111.329 130.743 109.177 133.785 109.177 133.785C108.401 132.255 106.868 131.109 104.987 130.125C99.6286 127.351 91.167 128.621 89.5786 123.537C89.3993 122.97 89.4981 122.465 89.4981 121.799C89.4981 120.258 89.6262 115.057 89.7104 112.107C89.7104 111.438 89.747 110.739 89.7689 110.018C90.1862 95.9711 91.1487 73.258 91.1487 73.258C91.1487 73.258 94.0144 63.9656 108.299 60.4998C121.69 57.2461 130.005 66.7215 130.99 67.911C131.059 67.9915 131.092 68.0354 131.092 68.0354C131.136 68.7674 131.183 69.4823 131.231 70.1801C132.362 86.8654 134.101 100.498 125.076 107.884Z" fill="#EEB49B"/>
<path d="M124.15 229.006H52.7824C40.5365 229.006 33.1106 217.661 34.893 205.539C36.1337 197.085 40.6902 175.895 50.29 156.717C55.143 147.011 61.2879 137.821 68.9553 131.054C84.4438 117.37 84.9855 157.445 84.9855 157.445C75.6931 176.583 70.2838 194.615 70.1448 201.55H125.215C120.34 211.949 119.985 221.101 124.15 229.006Z" fill="#F37B34"/>
<path d="M125.214 201.547H70.1519C70.2909 194.593 75.7002 176.579 84.9926 157.442C74.2985 188.646 75.5172 196.646 76.1613 198.033C76.8055 199.42 121.708 201.642 125.203 201.547H114.879" fill="#CA6734"/>
<path d="M97.6813 91.2857L91.3022 95.3116C84.9231 99.3374 80.5532 93.6463 80.5532 87.9625C80.5532 80.0572 88.3231 80.6099 91.6499 84.2185L97.6813 91.2857Z" fill="#EEB49B"/>
<path d="M115.059 128.738L114.557 129.287C113.075 130.919 111.446 133.049 109.51 133.049C108.39 133.049 106.948 131.677 105.148 130.791C104.174 130.315 103.16 129.795 102.202 129.279C98.388 127.237 95.3649 125.254 98.5417 126.33C106.678 129.056 113.891 127.014 116.296 126.421C117.434 126.139 116.475 127.193 115.059 128.738Z" fill="#E7E8EB"/>
<path d="M115.059 128.737L114.558 129.286C113.075 130.918 111.447 133.048 109.511 133.048C108.391 133.048 106.949 131.676 105.148 130.79C104.175 130.314 103.161 129.795 102.202 129.278C107.721 130.285 112.471 129.359 115.059 128.737Z" fill="#D1D3D9"/>
<path d="M134.423 124.555L121.672 142.729C119.937 138.107 116.932 133.174 114.949 130.246C114.371 129.356 113.741 128.5 113.064 127.684C116.146 130.323 121.116 133.576 123.454 139.608C123.44 139.586 133.416 125.784 134.423 124.555Z" fill="#CA6734"/>
<path d="M91.1339 73.5358C93.0187 76.7711 96.0235 76.7931 95.9978 72.0096C102.611 68.5401 124.911 63.7786 133.537 69.0488C133.537 69.0488 129.445 59.4563 129.24 59.3868C129.035 59.3173 105.451 55.1597 105.451 55.1597L87.0751 67.1567C87.0751 67.1567 84.3705 73.8103 84.9231 74.2275C85.4757 74.6447 91.1339 73.5358 91.1339 73.5358Z" fill="#192440"/>
<path d="M105.503 128.964L104.979 130.128L99.0943 143.201C98.4538 141.631 82.0796 128.316 75.3748 125.528C77.2047 116.96 86.8667 111.115 89.7617 110.002C89.7397 110.734 89.7177 111.422 89.7031 112.092C88.5319 112.802 84.5171 115.349 84.4402 116.931C84.4073 117.545 86.7313 119.083 89.8458 120.858C96.0859 124.43 105.503 128.964 105.503 128.964Z" fill="#F4956C"/>
<path d="M153.323 222.558H149.066C149.066 222.558 152.36 204.504 152.444 199.79C152.721 199.92 153.025 199.979 153.33 199.962C153.388 202.517 153.323 222.558 153.323 222.558Z" fill="#D89B87"/>
<path d="M134.423 124.555C134.423 124.555 128.772 132.756 123.619 140.731C122.503 136.387 115.677 130.008 113.606 128.148C113.24 127.812 113.009 127.625 113.009 127.625L117.119 123.552L123.085 117.659C123.22 117.525 123.323 117.362 123.386 117.182C123.449 117.002 123.47 116.81 123.447 116.621C123.424 116.432 123.359 116.25 123.256 116.09C123.152 115.93 123.014 115.796 122.85 115.698L116.146 111.643C117.562 111.645 118.964 111.359 120.267 110.801L125.943 113.937C126.864 114.492 127.674 115.215 128.329 116.067L134.423 124.555Z" fill="#F4956C"/>
<path d="M114.949 130.238V160.329C114.949 160.545 114.907 160.758 114.825 160.958C114.743 161.157 114.622 161.338 114.47 161.491C114.317 161.643 114.137 161.764 113.937 161.847C113.738 161.93 113.525 161.972 113.309 161.972H107.087C106.661 161.972 106.251 161.805 105.945 161.508C105.639 161.211 105.461 160.806 105.448 160.38L104.507 129.356L105.495 128.964L109.404 132.115L113.009 127.632L113.049 127.668C113.732 128.487 114.366 129.345 114.949 130.238Z" fill="#F4956C"/>
<path d="M113.309 161.972L106.374 162.492C105.488 162.492 104.69 162.075 104.661 161.189L104.566 131.05L105.455 160.38C105.469 160.807 105.647 161.211 105.953 161.508C106.259 161.805 106.668 161.972 107.095 161.972H113.309Z" fill="#CA6734"/>
<path d="M124.032 155.294H142.134V170.998C142.136 172.188 141.903 173.366 141.448 174.465C140.994 175.565 140.328 176.564 139.487 177.405C138.647 178.247 137.648 178.915 136.549 179.37C135.451 179.826 134.273 180.06 133.083 180.06C131.895 180.06 130.718 179.826 129.62 179.371C128.522 178.916 127.524 178.25 126.683 177.409C125.843 176.569 125.176 175.571 124.721 174.473C124.267 173.375 124.032 172.198 124.032 171.009V155.294Z" fill="#F4956C"/>
<path d="M126.214 170.225C126.214 164.436 126.32 163.085 126.946 154.521V170.225C126.946 171.414 127.18 172.591 127.635 173.689C128.089 174.787 128.756 175.785 129.597 176.625C130.437 177.466 131.435 178.132 132.533 178.587C133.631 179.042 134.808 179.276 135.996 179.276C127.253 179.276 126.214 172.414 126.214 170.225Z" fill="#CA6734"/>
<path d="M110.4 140.94C111.396 140.94 112.204 140.132 112.204 139.135C112.204 138.139 111.396 137.331 110.4 137.331C109.403 137.331 108.595 138.139 108.595 139.135C108.595 140.132 109.403 140.94 110.4 140.94Z" fill="#E7E8EB"/>
<path d="M110.4 148.826C111.396 148.826 112.204 148.018 112.204 147.022C112.204 146.025 111.396 145.217 110.4 145.217C109.403 145.217 108.595 146.025 108.595 147.022C108.595 148.018 109.403 148.826 110.4 148.826Z" fill="#E7E8EB"/>
<path d="M110.4 156.713C111.396 156.713 112.204 155.905 112.204 154.909C112.204 153.912 111.396 153.104 110.4 153.104C109.403 153.104 108.595 153.912 108.595 154.909C108.595 155.905 109.403 156.713 110.4 156.713Z" fill="#E7E8EB"/>
<path d="M124.149 229.007H111.483C108.291 224.22 109.195 207.509 114.879 201.558H125.214C120.339 211.952 119.984 221.102 124.149 229.007Z" fill="#F4956C"/>
<path d="M209.813 172.074L203.796 178.713C192.684 176.056 190.928 157.197 192.216 146.181L198.734 138.594C198.734 138.594 199.181 171.518 209.813 172.074Z" fill="#F4956C"/>
<path d="M158.915 199.457V222.543H152.956V200.189C152.958 199.657 152.779 199.141 152.448 198.725L152.188 198.399C152.239 198.172 152.301 197.938 152.378 197.689C152.894 196.179 153.525 194.711 154.267 193.297L158.333 197.92C158.706 198.345 158.913 198.891 158.915 199.457Z" fill="#3C6384"/>
<path d="M158.918 213.917V222.558H153.831V200.189C153.835 199.658 153.656 199.141 153.326 198.725L152.375 197.689C152.89 196.179 153.521 194.711 154.263 193.297L158.329 197.92C158.706 198.347 158.914 198.898 158.915 199.468V213.913L158.918 213.917Z" fill="#4879AA"/>
<path d="M135.386 222.558H179.535V229.007H135.386C135.254 229.007 135.125 228.981 135.004 228.93C134.883 228.88 134.773 228.806 134.68 228.712C134.588 228.619 134.515 228.509 134.466 228.387C134.417 228.265 134.392 228.135 134.394 228.004V223.539C134.397 223.278 134.503 223.028 134.688 222.845C134.874 222.661 135.125 222.558 135.386 222.558Z" fill="#192440"/>
<path d="M244.994 222.558H179.534V229.007H244.994V222.558Z" fill="#181F2D"/>
<path d="M207.989 182.851L185.324 225.419L185.265 225.533C185.119 225.499 184.977 225.452 184.841 225.39L184.713 225.324L184.654 225.291L179.53 222.568L202.423 179.561L202.624 179.195C202.749 178.954 202.946 178.758 203.188 178.635L203.554 178.965L207.989 182.851Z" fill="#2C3C60"/>
<path d="M279.862 182.852H207.99L203.565 178.962L203.199 178.632C203.394 178.526 203.613 178.47 203.836 178.471H273.864C274.537 178.467 275.188 178.71 275.693 179.156L279.862 182.852Z" fill="#4E6284"/>
<path d="M279.862 182.853L257.445 224.941C257.341 225.136 257.186 225.299 256.997 225.412C256.807 225.526 256.59 225.586 256.369 225.585H185.811C185.627 225.585 185.444 225.563 185.266 225.519L185.324 225.406L207.99 182.838L279.862 182.853Z" fill="#192440"/>
<path d="M32.7081 121.681L31.8736 120.133L25.0114 107.415L21.7175 101.289L18.8555 95.9855C18.7316 95.7568 18.662 95.5026 18.6521 95.2427C18.6422 94.9828 18.6923 94.7241 18.7985 94.4867C18.9046 94.2492 19.064 94.0394 19.2643 93.8734C19.4646 93.7075 19.7004 93.5899 19.9535 93.5297L40.0351 88.7902C40.3126 88.7258 40.6018 88.732 40.8763 88.8084C41.1507 88.8847 41.4016 89.0288 41.606 89.2273C41.8103 89.4258 41.9615 89.6724 42.0458 89.9445C42.1301 90.2167 42.1447 90.5056 42.0883 90.7848L41.6491 92.9295L40.4157 98.9719L37.0523 115.441L35.8702 121.217C35.801 121.559 35.6277 121.872 35.374 122.113C35.1203 122.353 34.7985 122.51 34.4525 122.561C34.1066 122.612 33.7534 122.554 33.4412 122.397C33.129 122.24 32.8729 121.99 32.7081 121.681Z" fill="#9D78B4"/>
<path d="M45.8325 83.8598L48.6836 86.0814C52.0177 85.0164 50.1987 74.3479 54.2575 73.0889L50.3378 71.1455C46.2863 74.2234 48.7531 81.5468 45.8325 83.8598Z" fill="#91B6DB"/>
<path d="M30.4902 66.604C26.5522 71.0178 32.7849 78.0813 29.1837 82.2938L26.2082 80.8299C28.5651 79.1573 23.4743 70.3371 26.2082 67.4933L30.4902 66.604Z" fill="#F47E76"/>
<path d="M12.6997 89.4488L10.039 93.3209C7.93091 88.8046 1.22971 90.027 0 86.6599L2.53628 81.5361C4.47966 85.9792 11.0528 85.024 12.6997 89.4488Z" fill="#F47E76"/>
<path d="M18.2862 82.2624C19.1277 81.7027 19.1111 80.1984 18.2492 78.9025C17.3872 77.6066 16.0063 77.0098 15.1648 77.5695C14.3233 78.1293 14.3399 79.6335 15.2018 80.9294C16.0638 82.2253 17.4447 82.8221 18.2862 82.2624Z" fill="#91B6DB"/>
<path d="M40.2047 81.1103C41.1624 80.7874 41.5357 79.3301 41.0385 77.8553C40.5413 76.3804 39.3619 75.4466 38.4042 75.7694C37.4465 76.0923 37.0732 77.5496 37.5704 79.0244C38.0676 80.4993 39.247 81.4331 40.2047 81.1103Z" fill="#F47E76"/>
<path d="M52.5861 97.2941C54.0265 96.8085 54.901 95.5454 54.5394 94.4728C54.1778 93.4002 52.717 92.9243 51.2767 93.4099C49.8363 93.8954 48.9618 95.1586 49.3234 96.2312C49.685 97.3038 51.1458 97.7797 52.5861 97.2941Z" fill="#F47E76"/>
<path d="M15.0304 104.44C15.387 103.366 14.5065 102.107 13.0639 101.628C11.6213 101.149 10.1628 101.632 9.80621 102.706C9.44968 103.78 10.3301 105.039 11.7728 105.518C13.2154 105.997 14.6739 105.514 15.0304 104.44Z" fill="#91B6DB"/>
<path d="M26.4753 105.9C26.1562 106.545 25.6446 107.074 25.0114 107.415L21.7175 101.288C22.3676 100.942 23.1108 100.811 23.8401 100.914C24.5694 101.017 25.2473 101.349 25.7762 101.861C26.305 102.374 26.6577 103.041 26.7833 103.767C26.909 104.492 26.8011 105.239 26.4753 105.9Z" fill="#91B6DB"/>
<path d="M40.4082 98.9724C39.63 98.7861 38.9546 98.3046 38.5246 97.6296C38.0947 96.9547 37.9438 96.1391 38.1038 95.355C38.2639 94.5709 38.7223 93.8796 39.3824 93.4272C40.0425 92.9747 40.8526 92.7964 41.6416 92.93L40.4082 98.9724Z" fill="#F47E76"/>
<path d="M32.1262 111.166C33.2601 111.166 34.1794 110.247 34.1794 109.113C34.1794 107.979 33.2601 107.06 32.1262 107.06C30.9922 107.06 30.073 107.979 30.073 109.113C30.073 110.247 30.9922 111.166 32.1262 111.166Z" fill="white"/>
<path d="M32.708 121.681L31.8735 120.133C31.8932 119.481 32.0441 118.841 32.317 118.249C32.59 117.657 32.9794 117.126 33.4622 116.688C33.9449 116.25 34.511 115.914 35.1265 115.7C35.7421 115.485 36.3946 115.397 37.0449 115.441L35.8701 121.216C35.8009 121.559 35.6276 121.872 35.3739 122.113C35.1202 122.353 34.7984 122.51 34.4524 122.56C34.1065 122.611 33.7533 122.554 33.4411 122.397C33.1289 122.239 32.8729 121.989 32.708 121.681Z" fill="#F47E76"/>
<path d="M168.229 56.5063L170.828 55.2254C170.955 55.1622 171.095 55.1298 171.237 55.1309C171.379 55.132 171.519 55.1666 171.645 55.2318C171.771 55.2971 171.881 55.3911 171.964 55.5064C172.047 55.6216 172.101 55.7548 172.123 55.8951L174.985 73.8577C175.005 73.9766 175 74.0981 174.971 74.2151C174.943 74.3321 174.891 74.4423 174.82 74.5391C174.748 74.6359 174.658 74.7175 174.554 74.779C174.451 74.8404 174.336 74.8806 174.217 74.8971L172.211 75.1826C171.98 75.2147 171.746 75.1565 171.557 75.0201C171.368 74.8838 171.239 74.6797 171.197 74.4506L167.742 57.4835C167.706 57.2898 167.734 57.0896 167.822 56.9132C167.91 56.7368 168.053 56.5939 168.229 56.5063Z" fill="#9D78B4"/>
<path d="M172.595 62.908L178.067 60.3827C178.28 60.2837 178.524 60.2719 178.746 60.3498C178.968 60.4277 179.151 60.5892 179.256 60.7999L179.787 61.8613C179.842 61.9734 179.874 62.0958 179.88 62.2208C179.886 62.3457 179.865 62.4706 179.821 62.5874C179.776 62.7043 179.708 62.8106 179.62 62.8998C179.532 62.989 179.427 63.059 179.311 63.1056L173.506 65.426C173.385 65.4754 173.254 65.4977 173.123 65.4913C172.992 65.485 172.864 65.4501 172.748 65.3891C172.632 65.3281 172.531 65.2424 172.451 65.1382C172.372 65.0339 172.316 64.9136 172.288 64.7855L172.09 63.9291C172.045 63.7268 172.071 63.5152 172.162 63.3294C172.254 63.1437 172.407 62.995 172.595 62.908Z" fill="#9D78B4"/>
<path d="M176.979 53.601L180.006 72.1345C180.031 72.2811 180.09 72.4195 180.181 72.5375C180.271 72.6555 180.389 72.7496 180.524 72.8114C180.659 72.8732 180.808 72.9008 180.956 72.8919C181.104 72.883 181.248 72.8378 181.375 72.7603L182.352 72.1601C182.497 72.0718 182.613 71.9447 182.689 71.7933C182.765 71.6418 182.796 71.4722 182.78 71.3037L181.035 52.7775C181.022 52.6468 180.982 52.5202 180.916 52.4067C180.85 52.2931 180.76 52.1953 180.652 52.1201C180.545 52.0449 180.422 51.994 180.293 51.971C180.163 51.948 180.031 51.9535 179.904 51.987L177.646 52.5762C177.427 52.6334 177.237 52.7701 177.114 52.9597C176.991 53.1492 176.943 53.3779 176.979 53.601Z" fill="#9D78B4"/>
<path d="M186.353 58.7062L187.941 58.3585C188.068 58.3303 188.199 58.3297 188.326 58.3568C188.453 58.3839 188.573 58.438 188.677 58.5154C188.781 58.5928 188.867 58.6918 188.93 58.8056C188.992 58.9193 189.03 59.0452 189.039 59.1747L189.885 70.0883C189.902 70.3107 189.837 70.5317 189.702 70.7092C189.567 70.8868 189.372 71.0084 189.153 71.0509L188.38 71.1973C188.261 71.2203 188.138 71.2191 188.019 71.1936C187.9 71.168 187.788 71.1188 187.688 71.0487C187.589 70.9787 187.505 70.8893 187.44 70.7859C187.376 70.6825 187.334 70.5672 187.315 70.447L185.654 59.7309C185.619 59.5033 185.671 59.2708 185.801 59.0805C185.931 58.8902 186.128 58.7564 186.353 58.7062Z" fill="#9D78B4"/>
<path d="M187.019 55.412C188.24 55.412 189.229 53.9258 189.229 52.0925C189.229 50.2591 188.24 48.7729 187.019 48.7729C185.798 48.7729 184.808 50.2591 184.808 52.0925C184.808 53.9258 185.798 55.412 187.019 55.412Z" fill="#9D78B4"/>
<path d="M195.736 46.2075H198.536C198.663 46.2074 198.789 46.2339 198.905 46.2854C199.021 46.3368 199.125 46.412 199.21 46.5062C199.295 46.6004 199.36 46.7114 199.4 46.832C199.439 46.9527 199.453 47.0803 199.44 47.2067L197.731 63.5296C197.708 63.7522 197.603 63.9584 197.437 64.1079C197.271 64.2574 197.054 64.3396 196.831 64.3385H196.216C195.98 64.3386 195.754 64.2468 195.586 64.0828C195.417 63.9188 195.319 63.6954 195.312 63.4601L194.829 47.1408C194.825 47.0195 194.846 46.8987 194.89 46.7856C194.934 46.6725 195.001 46.5694 195.085 46.4824C195.17 46.3953 195.271 46.3262 195.383 46.279C195.495 46.2318 195.615 46.2075 195.736 46.2075Z" fill="#9D78B4"/>
<path d="M196.384 70.4653C197.235 70.4653 197.925 69.5624 197.925 68.4487C197.925 67.335 197.235 66.4321 196.384 66.4321C195.533 66.4321 194.843 67.335 194.843 68.4487C194.843 69.5624 195.533 70.4653 196.384 70.4653Z" fill="#9D78B4"/>
<path d="M255.765 138.557C251.575 121.794 224.92 131.079 254.59 157.273C254.742 157.408 254.92 157.51 255.113 157.574C255.306 157.638 255.51 157.662 255.712 157.644C255.914 157.627 256.111 157.568 256.29 157.472C256.469 157.376 256.627 157.245 256.753 157.086C276.667 132.24 261.702 117.11 255.765 138.557Z" fill="#F47E76"/>
<path d="M266.987 158.155C262.997 144.288 272.085 141.66 271.949 150.744C275.54 146.674 283.826 151.564 269.124 159.085C268.926 159.187 268.707 159.243 268.484 159.25C268.261 159.257 268.04 159.214 267.835 159.126C267.631 159.037 267.449 158.904 267.302 158.736C267.155 158.568 267.048 158.37 266.987 158.155Z" fill="#F47E76"/>
<path d="M243.644 160.538C238.059 155.088 243.187 150.513 244.182 155.78C246.012 153.181 248.007 154.386 244.548 160.421C244.503 160.496 244.441 160.56 244.368 160.608C244.295 160.655 244.211 160.686 244.124 160.697C244.038 160.709 243.949 160.7 243.866 160.673C243.783 160.645 243.707 160.599 243.644 160.538Z" fill="#F47E76"/>
<path d="M124.153 101.878C122.239 103.723 119.69 104.765 117.031 104.787C113.737 104.864 110.762 103.257 108.661 100.395C106.879 97.9761 105.733 94.6639 105.502 90.7186C106.086 90.8772 106.677 91.0187 107.277 91.1432C113.865 92.5046 121.331 91.8166 125.741 90.7113C126.432 90.5439 127.113 90.3373 127.78 90.0928C128.128 95.5569 126.634 99.4693 124.153 101.878Z" fill="#151C2D"/>
<path d="M116.548 120.155C107.915 118.457 101.601 107.133 101.601 107.133C106.041 111.049 111.38 111.58 115.458 111.58C115.161 111.573 115.955 116.612 116.548 120.155Z" fill="#D89B87"/>
<path d="M86.3324 84.2153C82.6726 86.6638 84.3305 90.847 86.3324 92.3951C84.6013 89.4599 84.6782 86.4332 86.3324 84.2153Z" fill="#D89B87"/>
<path d="M105.503 128.964L99.0687 142.949C99.0687 142.949 87.5365 131.46 75.3748 125.528C82.0796 130.428 95.1746 141.631 98.4319 147.008C98.4538 147.022 103.962 131.018 105.503 128.964Z" fill="#CA6734"/>
<path d="M156.302 183.932C155.182 177.088 147.174 145.869 147.174 145.869L158.962 183.932H156.302Z" fill="#CA6734"/>
<path d="M176.372 162.943C172.611 166.717 168.437 170.057 163.928 172.898C164.221 172.579 174.908 160.901 171.907 157.255C173.418 159.137 174.915 161.029 176.372 162.943Z" fill="#CA6734"/>
<path d="M205.838 118.471C210.046 118.515 219.379 119.935 219.291 132.013C220.722 126.282 217.626 115.232 205.838 118.471Z" fill="#D89B87"/>
<path d="M212.726 112.458C217.117 110.182 226.007 110.654 227.936 112.092C222.889 110.936 216.148 111.719 212.726 112.458Z" fill="#D89B87"/>
<path d="M70.1521 201.547H62.1772C66.7557 200.16 70.4449 197.36 71.4001 193.66C72.3553 189.96 72.0955 199.534 72.0955 199.534L70.1521 201.547Z" fill="#CA6734"/>
<path d="M164.441 206.122H158.915V205.756H164.405L164.17 205.939C164.273 205.997 164.361 206.045 164.441 206.122Z" fill="#D89B87"/>
<path d="M164.02 214.097L163.906 214.162L164.02 214.28H158.918V213.914H164.305C164.214 213.98 164.118 214.041 164.02 214.097Z" fill="#D89B87"/>
<path d="M158.918 213.917H158.915V214.283H158.918V213.917Z" fill="#D89B87"/>
<path d="M163.493 221.841H158.918V222.207H163.493V221.841Z" fill="#D89B87"/>
<path d="M158.918 221.841H158.915V222.207H158.918V221.841Z" fill="#D89B87"/>
<path d="M124.154 101.878C122.225 103.762 119.473 106.204 116.797 106.269C113.503 106.346 110.762 103.261 108.661 100.414C111.388 98.646 113.672 98.8766 115.249 99.7916C117.595 98.4704 121.976 98.7448 124.154 101.878Z" fill="#E77472"/>
<path d="M124.867 93.3203C121.836 94.711 111.241 94.6378 109.437 93.9461C108.862 93.7229 107.709 92.387 107.003 90.096C113.591 91.4574 121.566 90.8536 125.976 89.73C126.056 90.7584 125.723 92.9543 124.867 93.3203Z" fill="white"/>
<path d="M133.533 69.0479C132.629 69.0296 131.762 69.6408 131.224 70.1788C131.177 69.4688 131.131 68.7539 131.085 68.0341C131.085 68.0341 131.052 67.9902 130.982 67.9097C131.487 68.1293 133.098 68.8356 133.533 69.0479Z" fill="#0D1A32"/>
<path opacity="0.29" d="M51.8455 113.644C76.0518 136.526 114.089 127.826 151.459 104.637C197.94 75.8049 250.927 57.0884 253.76 113.644" stroke="#192440" stroke-width="3" stroke-linecap="round" stroke-linejoin="round"/>
<path d="M181.796 229.006C168.661 236.868 151.5 241.765 130.621 241.765C112.969 241.765 97.7514 237.007 85.3518 229.006H181.796Z" fill="#D1D3D9"/>
</svg>
